# xmcd
#
# Track frame offsets:
#	150
#	14962
#	29664
#	43927
#	60081
#	70612
#	86982
#	107513
#	126412
#	140809
#	158244
#	172396
#	184328
#	195390
#	211140
#	226489
#
# Disc length: 3253 seconds
#
# Revision: 1
# Processed by: cddbd v1.5.1PL0 Copyright (c) Steve Scherf et al.
# Submitted via: EasyCDDAExtractor 5.1.0
#
DISCID=f20cb310
DTITLE=Various Artist - country
DYEAR=1900
DGENRE=Country
TTITLE0=sway
TTITLE1=virginia country line
TTITLE2=Are You Lonesome Tonight
TTITLE3=Country3
TTITLE4=Country5
TTITLE5=Country14
TTITLE6=copperead road
TTITLE7=Country9
TTITLE8=Country10
TTITLE9=Country13
TTITLE10=Country11
TTITLE11=Country6
TTITLE12=compilation - cotton hey joe
TTITLE13=ridin
TTITLE14=Country8
TTITLE15=Man! I Feel Like A Woman!
EXTD=
EXTT0=
EXTT1=
EXTT2=
EXTT3=
EXTT4=
EXTT5=
EXTT6=
EXTT7=
EXTT8=
EXTT9=
EXTT10=
EXTT11=
EXTT12=
EXTT13=
EXTT14=
EXTT15=
PLAYORDER=
